<?xml version="1.0" encoding="UTF-8"?>
<svg xmlns="http://www.w3.org/2000/svg" viewBox="0 0 250 220">
  <!-- Popover ë°°ê²½ -->
  <rect x="10" y="10" width="230" height="200" fill="#1e1e38" rx="8" filter="drop-shadow(0 4px 12px rgba(0, 0, 0, 0.3))"/>
  <rect x="10" y="10" width="230" height="200" fill="none" stroke="#3d3d5c" stroke-width="1" rx="8"/>

  <!-- ì™„ë£Œì¼ ì„¹ì…˜ -->
  <rect x="20" y="20" width="210" height="36" fill="#16213e" rx="4"/>
  <text x="36" y="43" font-family="Arial" font-size="14" fill="#e8e8e8">ðŸ“…</text>
  <text x="56" y="43" font-family="Arial" font-size="13" fill="#e8e8e8">2025-12-16 14:30</text>

  <!-- êµ¬ë¶„ì„  -->
  <rect x="20" y="64" width="210" height="1" fill="#3d3d5c"/>

  <!-- Auto ë²„íŠ¼ -->
  <rect x="20" y="74" width="210" height="36" fill="#8b5cf6" rx="6"/>
  <text x="125" y="98" font-family="Arial" font-size="13" font-weight="bold" fill="#ffffff" text-anchor="middle">âš¡ Auto</text>

  <!-- êµ¬ë¶„ì„  -->
  <rect x="20" y="118" width="210" height="1" fill="#3d3d5c"/>

  <!-- ì•¡ì…˜ ë²„íŠ¼ë“¤ Row 1 -->
  <rect x="20" y="128" width="100" height="32" fill="#22c55e" rx="4"/>
  <text x="70" y="149" font-family="Arial" font-size="12" fill="#ffffff" text-anchor="middle">build</text>

  <rect x="130" y="128" width="100" height="32" fill="#3b82f6" rx="4"/>
  <text x="180" y="149" font-family="Arial" font-size="12" fill="#ffffff" text-anchor="middle">ui</text>

  <!-- ì•¡ì…˜ ë²„íŠ¼ë“¤ Row 2 -->
  <rect x="20" y="168" width="100" height="32" fill="#3b82f6" rx="4"/>
  <text x="70" y="189" font-family="Arial" font-size="12" fill="#ffffff" text-anchor="middle">review</text>

  <rect x="130" y="168" width="100" height="32" fill="#22c55e" rx="4"/>
  <text x="180" y="189" font-family="Arial" font-size="12" fill="#ffffff" text-anchor="middle">apply</text>
</svg>
